<mxfile host="app.diagrams.net" modified="2021-07-15T17:32:54.440Z" agent="5.0 (Windows NT 10.0; Win64; x64) AppleWebKit/537.36 (KHTML, like Gecko) Chrome/91.0.4472.124 Safari/537.36" etag="w_sXTAM05bnY-HdSgDSW" version="14.8.6" type="github">
  <diagram id="pIRpALu3X4-BsKBxWYUz" name="Page-1">
    <mxGraphModel dx="1328" dy="710" grid="1" gridSize="10" guides="1" tooltips="1" connect="1" arrows="1" fold="1" page="1" pageScale="1" pageWidth="1100" pageHeight="850" math="0" shadow="0">
      <root>
        <mxCell id="0" />
        <mxCell id="1" parent="0" />
        <mxCell id="_ervjC3GWcdWoxRIWC9f-11" style="edgeStyle=orthogonalEdgeStyle;rounded=0;orthogonalLoop=1;jettySize=auto;html=1;" parent="1" source="AVrMXiXkNaU7DZrsUjue-19" target="_ervjC3GWcdWoxRIWC9f-1" edge="1">
          <mxGeometry relative="1" as="geometry">
            <Array as="points">
              <mxPoint x="275" y="370" />
            </Array>
          </mxGeometry>
        </mxCell>
        <mxCell id="AVrMXiXkNaU7DZrsUjue-19" value="" style="strokeWidth=2;outlineConnect=0;dashed=0;align=center;fontSize=8;verticalLabelPosition=bottom;verticalAlign=top;shape=mxgraph.eip.message_store;fillColor=#c0f5a9" parent="1" vertex="1">
          <mxGeometry x="200" y="190" width="150" height="90" as="geometry" />
        </mxCell>
        <mxCell id="_ervjC3GWcdWoxRIWC9f-12" style="edgeStyle=orthogonalEdgeStyle;rounded=0;orthogonalLoop=1;jettySize=auto;html=1;" parent="1" source="AVrMXiXkNaU7DZrsUjue-20" target="_ervjC3GWcdWoxRIWC9f-2" edge="1">
          <mxGeometry relative="1" as="geometry">
            <Array as="points">
              <mxPoint x="885" y="370" />
            </Array>
          </mxGeometry>
        </mxCell>
        <mxCell id="AVrMXiXkNaU7DZrsUjue-20" value="" style="strokeWidth=2;outlineConnect=0;dashed=0;align=center;fontSize=8;verticalLabelPosition=bottom;verticalAlign=top;shape=mxgraph.eip.message_store;fillColor=#c0f5a9" parent="1" vertex="1">
          <mxGeometry x="810" y="190" width="150" height="90" as="geometry" />
        </mxCell>
        <mxCell id="AVrMXiXkNaU7DZrsUjue-22" value="Parse DB&lt;br&gt;(Omni)" style="text;html=1;strokeColor=none;fillColor=none;align=center;verticalAlign=middle;whiteSpace=wrap;rounded=0;" parent="1" vertex="1">
          <mxGeometry x="230" y="290" width="90" height="20" as="geometry" />
        </mxCell>
        <mxCell id="AVrMXiXkNaU7DZrsUjue-23" value="Parse DB&lt;br&gt;(Passthrough)" style="text;html=1;strokeColor=none;fillColor=none;align=center;verticalAlign=middle;whiteSpace=wrap;rounded=0;" parent="1" vertex="1">
          <mxGeometry x="840" y="290" width="100" height="20" as="geometry" />
        </mxCell>
        <mxCell id="AVrMXiXkNaU7DZrsUjue-24" value="&lt;h1&gt;Process PB Response (Validate with Universe)&lt;/h1&gt;" style="text;html=1;strokeColor=none;fillColor=none;align=center;verticalAlign=middle;whiteSpace=wrap;rounded=0;" parent="1" vertex="1">
          <mxGeometry x="270" y="100" width="595" height="20" as="geometry" />
        </mxCell>
        <mxCell id="AVrMXiXkNaU7DZrsUjue-25" value="" style="strokeWidth=2;outlineConnect=0;dashed=0;align=center;fontSize=8;verticalLabelPosition=bottom;verticalAlign=top;shape=mxgraph.eip.message_store;fillColor=#c0f5a9" parent="1" vertex="1">
          <mxGeometry x="200" y="510" width="150" height="90" as="geometry" />
        </mxCell>
        <mxCell id="_ervjC3GWcdWoxRIWC9f-28" style="edgeStyle=orthogonalEdgeStyle;rounded=0;orthogonalLoop=1;jettySize=auto;html=1;" parent="1" source="_ervjC3GWcdWoxRIWC9f-1" target="AVrMXiXkNaU7DZrsUjue-25" edge="1">
          <mxGeometry relative="1" as="geometry">
            <Array as="points">
              <mxPoint x="275" y="395" />
            </Array>
          </mxGeometry>
        </mxCell>
        <mxCell id="_ervjC3GWcdWoxRIWC9f-36" style="edgeStyle=orthogonalEdgeStyle;rounded=0;orthogonalLoop=1;jettySize=auto;html=1;dashed=1;strokeColor=#FF0000;" parent="1" source="_ervjC3GWcdWoxRIWC9f-1" target="_ervjC3GWcdWoxRIWC9f-10" edge="1">
          <mxGeometry relative="1" as="geometry">
            <Array as="points">
              <mxPoint x="400" y="555" />
            </Array>
          </mxGeometry>
        </mxCell>
        <mxCell id="_ervjC3GWcdWoxRIWC9f-1" value="" style="strokeWidth=2;outlineConnect=0;dashed=0;align=center;fontSize=8;fillColor=#c0f5a9;verticalLabelPosition=bottom;verticalAlign=top;shape=mxgraph.eip.content_enricher;" parent="1" vertex="1">
          <mxGeometry x="325" y="350" width="150" height="90" as="geometry" />
        </mxCell>
        <mxCell id="_ervjC3GWcdWoxRIWC9f-25" style="edgeStyle=orthogonalEdgeStyle;rounded=0;orthogonalLoop=1;jettySize=auto;html=1;" parent="1" source="_ervjC3GWcdWoxRIWC9f-2" target="_ervjC3GWcdWoxRIWC9f-9" edge="1">
          <mxGeometry relative="1" as="geometry">
            <Array as="points">
              <mxPoint x="885" y="410" />
            </Array>
          </mxGeometry>
        </mxCell>
        <mxCell id="_ervjC3GWcdWoxRIWC9f-35" style="edgeStyle=orthogonalEdgeStyle;rounded=0;orthogonalLoop=1;jettySize=auto;html=1;dashed=1;strokeColor=#FF0000;" parent="1" source="_ervjC3GWcdWoxRIWC9f-2" target="_ervjC3GWcdWoxRIWC9f-10" edge="1">
          <mxGeometry relative="1" as="geometry">
            <Array as="points">
              <mxPoint x="730" y="555" />
            </Array>
          </mxGeometry>
        </mxCell>
        <mxCell id="_ervjC3GWcdWoxRIWC9f-2" value="" style="strokeWidth=2;outlineConnect=0;dashed=0;align=center;fontSize=8;fillColor=#c0f5a9;verticalLabelPosition=bottom;verticalAlign=top;shape=mxgraph.eip.content_enricher;" parent="1" vertex="1">
          <mxGeometry x="655" y="340" width="150" height="90" as="geometry" />
        </mxCell>
        <mxCell id="_ervjC3GWcdWoxRIWC9f-13" style="edgeStyle=orthogonalEdgeStyle;rounded=0;orthogonalLoop=1;jettySize=auto;html=1;" parent="1" source="_ervjC3GWcdWoxRIWC9f-6" target="_ervjC3GWcdWoxRIWC9f-1" edge="1">
          <mxGeometry relative="1" as="geometry">
            <Array as="points">
              <mxPoint x="540" y="390" />
            </Array>
          </mxGeometry>
        </mxCell>
        <mxCell id="_ervjC3GWcdWoxRIWC9f-15" style="edgeStyle=orthogonalEdgeStyle;rounded=0;orthogonalLoop=1;jettySize=auto;html=1;" parent="1" source="_ervjC3GWcdWoxRIWC9f-6" target="_ervjC3GWcdWoxRIWC9f-2" edge="1">
          <mxGeometry relative="1" as="geometry">
            <Array as="points">
              <mxPoint x="590" y="390" />
            </Array>
          </mxGeometry>
        </mxCell>
        <mxCell id="_ervjC3GWcdWoxRIWC9f-9" value="" style="strokeWidth=2;outlineConnect=0;dashed=0;align=center;fontSize=8;verticalLabelPosition=bottom;verticalAlign=top;shape=mxgraph.eip.message_store;fillColor=#c0f5a9" parent="1" vertex="1">
          <mxGeometry x="810" y="510" width="150" height="90" as="geometry" />
        </mxCell>
        <mxCell id="_ervjC3GWcdWoxRIWC9f-6" value="" style="shadow=0;dashed=0;html=1;strokeColor=none;labelPosition=center;verticalLabelPosition=bottom;verticalAlign=top;outlineConnect=0;align=center;shape=mxgraph.office.databases.database_mini_3;fillColor=#7FBA42;" parent="1" vertex="1">
          <mxGeometry x="525" y="180" width="75" height="100" as="geometry" />
        </mxCell>
        <mxCell id="_ervjC3GWcdWoxRIWC9f-17" value="Universe" style="whiteSpace=wrap;html=1;shape=mxgraph.basic.cloud_callout" parent="1" vertex="1">
          <mxGeometry x="590" y="190" width="90" height="40" as="geometry" />
        </mxCell>
        <mxCell id="_ervjC3GWcdWoxRIWC9f-10" value="" style="strokeWidth=2;outlineConnect=0;dashed=0;align=center;fontSize=8;verticalLabelPosition=bottom;verticalAlign=top;shape=mxgraph.eip.message_store;fillColor=#c0f5a9" parent="1" vertex="1">
          <mxGeometry x="487.5" y="510" width="150" height="90" as="geometry" />
        </mxCell>
        <mxCell id="_ervjC3GWcdWoxRIWC9f-19" value="Error DB&lt;br&gt;(Invalid Point ID)" style="text;html=1;strokeColor=none;fillColor=none;align=center;verticalAlign=middle;whiteSpace=wrap;rounded=0;" parent="1" vertex="1">
          <mxGeometry x="497.5" y="620" width="140" height="20" as="geometry" />
        </mxCell>
        <mxCell id="_ervjC3GWcdWoxRIWC9f-20" value="Enrich with Point ID" style="text;html=1;strokeColor=none;fillColor=none;align=center;verticalAlign=middle;whiteSpace=wrap;rounded=0;" parent="1" vertex="1">
          <mxGeometry x="332.5" y="445" width="155" height="20" as="geometry" />
        </mxCell>
        <mxCell id="_ervjC3GWcdWoxRIWC9f-21" value="Enrich with Point ID" style="text;html=1;strokeColor=none;fillColor=none;align=center;verticalAlign=middle;whiteSpace=wrap;rounded=0;" parent="1" vertex="1">
          <mxGeometry x="655" y="440" width="155" height="20" as="geometry" />
        </mxCell>
        <mxCell id="_ervjC3GWcdWoxRIWC9f-29" value="Pre-Data DB&lt;br&gt;(Omni)" style="text;html=1;strokeColor=none;fillColor=none;align=center;verticalAlign=middle;whiteSpace=wrap;rounded=0;" parent="1" vertex="1">
          <mxGeometry x="230" y="620" width="90" height="20" as="geometry" />
        </mxCell>
        <mxCell id="_ervjC3GWcdWoxRIWC9f-30" value="Pre-Data DB&lt;br&gt;(Passthrough)" style="text;html=1;strokeColor=none;fillColor=none;align=center;verticalAlign=middle;whiteSpace=wrap;rounded=0;" parent="1" vertex="1">
          <mxGeometry x="840" y="620" width="100" height="20" as="geometry" />
        </mxCell>
        <mxCell id="e2qt1UtbH4zja7K99yF6-5" style="edgeStyle=orthogonalEdgeStyle;rounded=0;orthogonalLoop=1;jettySize=auto;html=1;" edge="1" parent="1" source="e2qt1UtbH4zja7K99yF6-2" target="e2qt1UtbH4zja7K99yF6-4">
          <mxGeometry relative="1" as="geometry" />
        </mxCell>
        <mxCell id="e2qt1UtbH4zja7K99yF6-2" value="" style="strokeWidth=2;outlineConnect=0;dashed=0;align=center;fontSize=8;fillColor=#c0f5a9;verticalLabelPosition=bottom;verticalAlign=top;shape=mxgraph.eip.routing_slip;" vertex="1" parent="1">
          <mxGeometry x="320" y="680" width="150" height="90" as="geometry" />
        </mxCell>
        <mxCell id="e2qt1UtbH4zja7K99yF6-4" value="" style="strokeWidth=2;outlineConnect=0;dashed=0;align=center;fontSize=8;verticalLabelPosition=bottom;verticalAlign=top;shape=mxgraph.eip.message_store;fillColor=#c0f5a9" vertex="1" parent="1">
          <mxGeometry x="680" y="680" width="150" height="90" as="geometry" />
        </mxCell>
        <mxCell id="e2qt1UtbH4zja7K99yF6-6" value="Status DB" style="text;html=1;strokeColor=none;fillColor=none;align=center;verticalAlign=middle;whiteSpace=wrap;rounded=0;" vertex="1" parent="1">
          <mxGeometry x="705" y="780" width="100" height="20" as="geometry" />
        </mxCell>
        <mxCell id="e2qt1UtbH4zja7K99yF6-7" value="Metrics" style="text;html=1;strokeColor=none;fillColor=none;align=center;verticalAlign=middle;whiteSpace=wrap;rounded=0;" vertex="1" parent="1">
          <mxGeometry x="345" y="780" width="100" height="20" as="geometry" />
        </mxCell>
        <mxCell id="e2qt1UtbH4zja7K99yF6-8" value="" style="shape=image;html=1;verticalAlign=top;verticalLabelPosition=bottom;labelBackgroundColor=#ffffff;imageAspect=0;aspect=fixed;image=https://cdn3.iconfinder.com/data/icons/letters-and-numbers-1/32/number_2_green-128.png" vertex="1" parent="1">
          <mxGeometry x="950" y="30" width="128" height="128" as="geometry" />
        </mxCell>
      </root>
    </mxGraphModel>
  </diagram>
</mxfile>
